<svg version="1.1" id="Layer_1" xmlns="http://www.w3.org/2000/svg" xmlns:xlink="http://www.w3.org/1999/xlink" x="0px" y="0px"
	 width="100%" viewBox="0 0 311 277" enable-background="new 0 0 311 277" xml:space="preserve">
<path fill="#212529" opacity="1.000000" stroke="none" 
	d="
M178.000000,278.000000 
	C118.666679,278.000000 59.833355,278.000000 1.000024,278.000000 
	C1.000016,185.666687 1.000016,93.333389 1.000008,1.000061 
	C104.666626,1.000041 208.333252,1.000041 311.999908,1.000020 
	C311.999939,93.333275 311.999939,185.666550 311.999969,277.999908 
	C267.500000,278.000000 223.000000,278.000000 178.000000,278.000000 
M111.500000,262.000183 
	C146.324341,261.999939 181.149094,262.102814 215.972931,261.970184 
	C250.130264,261.840118 277.871216,234.062164 277.970428,199.870163 
	C278.092285,157.881073 278.110199,115.890961 277.964478,73.902008 
	C277.846802,39.993732 250.104721,12.169799 216.244873,12.039660 
	C174.089417,11.877638 131.932404,11.879554 89.776924,12.039032 
	C55.910389,12.167150 28.155333,39.979233 28.036217,73.880180 
	C27.888096,116.035744 27.895628,158.192566 28.037809,200.348175 
	C28.132755,228.499023 47.721203,253.871277 75.256371,259.766235 
	C86.641830,262.203735 98.730919,261.354553 111.500000,262.000183 
z"/>
<path fill="#010100" opacity="1.000000" stroke="none" 
	d="
M111.000000,262.000183 
	C98.730919,261.354553 86.641830,262.203735 75.256371,259.766235 
	C47.721203,253.871277 28.132755,228.499023 28.037809,200.348175 
	C27.895628,158.192566 27.888096,116.035744 28.036217,73.880180 
	C28.155333,39.979233 55.910389,12.167150 89.776924,12.039032 
	C131.932404,11.879554 174.089417,11.877638 216.244873,12.039660 
	C250.104721,12.169799 277.846802,39.993732 277.964478,73.902008 
	C278.110199,115.890961 278.092285,157.881073 277.970428,199.870163 
	C277.871216,234.062164 250.130264,261.840118 215.972931,261.970184 
	C181.149094,262.102814 146.324341,261.999939 111.000000,262.000183 
M204.023422,123.249214 
	C204.069626,122.252258 204.149109,121.255562 204.157166,120.258301 
	C204.354324,95.860176 185.365906,76.602745 161.175064,76.659279 
	C137.117844,76.715508 118.060112,96.305916 118.440804,120.587982 
	C118.794838,143.169388 136.662155,161.038544 160.294601,162.446014 
	C181.689621,163.720261 200.840424,146.946579 204.023422,123.249214 
M112.493813,135.773148 
	C105.732613,112.271973 112.609970,91.866425 132.240814,77.166641 
	C133.039474,76.568596 134.259567,76.067444 134.497971,75.282593 
	C135.019684,73.564957 135.810623,71.175995 135.043869,70.029305 
	C134.257965,68.853989 131.695099,68.304680 130.004410,68.466721 
	C128.537186,68.607346 127.125206,70.027428 125.819984,71.049553 
	C106.418549,86.242889 97.907722,106.188629 102.337265,130.386765 
	C106.607559,153.714890 120.929077,169.250809 143.507843,176.886841 
	C146.454041,177.883240 149.550522,178.435303 152.819931,179.253906 
	C152.819931,180.814255 152.853653,182.132309 152.810898,183.447891 
	C152.763870,184.894897 152.646469,186.339615 152.563873,187.716568 
	C135.954636,189.724854 133.462891,192.390656 136.103027,205.304321 
	C152.952011,205.304321 169.855179,205.304321 186.719727,205.304321 
	C188.582855,191.636627 187.114548,190.072464 170.238129,187.629623 
	C170.238129,184.896729 170.238129,182.126923 170.238129,179.151443 
	C171.881821,178.774551 173.553314,178.599991 175.061325,178.008575 
	C180.913483,175.713455 186.868240,173.583344 192.423981,170.697189 
	C193.804459,169.980057 193.831467,166.657532 194.480606,164.532562 
	C192.400375,164.157669 190.330658,163.651611 188.233856,163.483688 
	C187.559769,163.429703 186.832520,164.301788 186.098846,164.692444 
	C157.761459,179.781555 123.903511,166.763611 112.493813,135.773148 
z"/>
<path fill="#CAB169" opacity="1.000000" stroke="none" 
	d="
M204.008636,123.710159 
	C200.840424,146.946579 181.689621,163.720261 160.294601,162.446014 
	C136.662155,161.038544 118.794838,143.169388 118.440804,120.587982 
	C118.060112,96.305916 137.117844,76.715508 161.175064,76.659279 
	C185.365906,76.602745 204.354324,95.860176 204.157166,120.258301 
	C204.149109,121.255562 204.069626,122.252258 204.008636,123.710159 
z"/>
<path fill="#C4AC67" opacity="1.000000" stroke="none" 
	d="
M112.642319,136.142517 
	C123.903511,166.763611 157.761459,179.781555 186.098846,164.692444 
	C186.832520,164.301788 187.559769,163.429703 188.233856,163.483688 
	C190.330658,163.651611 192.400375,164.157669 194.480606,164.532562 
	C193.831467,166.657532 193.804459,169.980057 192.423981,170.697189 
	C186.868240,173.583344 180.913483,175.713455 175.061325,178.008575 
	C173.553314,178.599991 171.881821,178.774551 170.238129,179.151443 
	C170.238129,182.126923 170.238129,184.896729 170.238129,187.629623 
	C187.114548,190.072464 188.582855,191.636627 186.719727,205.304321 
	C169.855179,205.304321 152.952011,205.304321 136.103027,205.304321 
	C133.462891,192.390656 135.954636,189.724854 152.563873,187.716568 
	C152.646469,186.339615 152.763870,184.894897 152.810898,183.447891 
	C152.853653,182.132309 152.819931,180.814255 152.819931,179.253906 
	C149.550522,178.435303 146.454041,177.883240 143.507843,176.886841 
	C120.929077,169.250809 106.607559,153.714890 102.337265,130.386765 
	C97.907722,106.188629 106.418549,86.242889 125.819984,71.049553 
	C127.125206,70.027428 128.537186,68.607346 130.004410,68.466721 
	C131.695099,68.304680 134.257965,68.853989 135.043869,70.029305 
	C135.810623,71.175995 135.019684,73.564957 134.497971,75.282593 
	C134.259567,76.067444 133.039474,76.568596 132.240814,77.166641 
	C112.609970,91.866425 105.732613,112.271973 112.642319,136.142517 
z"/>
</svg>